<?xml version="1.0" encoding="utf-8"?><svg id="Untitled-2" image-rendering="auto" baseProfile="basic" version="1.1" x="0px" y="0px" width="87" height="81" xmlns="http://www.w3.org/2000/svg" xmlns:xlink="http://www.w3.org/1999/xlink"><g id="Scene-1" overflow="visible"><g display="none"><g transform="matrix(2.208 0 0 1.994 0 0)"><path id="Layer90_0_1_STROKES" stroke="#2885C7" stroke-width="2" stroke-linejoin="round" stroke-linecap="round" fill="none" d="M42.9 21Q33 34.25 30 39.25 25.25 47.2 25.25 53.1 25.25 59.65 30.45 64.35 35.5 69.05 42.9 69.05 50.2 69.05 55.4 64.35 60.6 59.65 60.6 53.1 60.6 47.2 55.7 39.25 52.95 34.65 42.9 21Z"/></g><animate attributeName="display" repeatCount="indefinite" dur="1s" keyTimes="0;.967;1" values="none;inline;inline"/></g><g display="none"><path id="Layer88_0_1_STROKES" stroke="#2885C7" stroke-width="2" stroke-linejoin="round" stroke-linecap="round" fill="none" d="M25.25 54.3Q25.25 48.4 30 40.45 33 35.45 42.9 22.2 52.95 35.85 55.7 40.45 60.6 48.4 60.6 54.3 60.6 60.85 55.4 65.55 50.2 70.25 42.9 70.25 35.5 70.25 30.45 65.55 25.25 60.85 25.25 54.3Z"/><animate attributeName="display" repeatCount="indefinite" dur="1s" keyTimes="0;.9;.933;1" values="none;inline;none;none"/></g><g display="none"><path id="Layer87_0_1_STROKES" stroke="#2885C7" stroke-width="2" stroke-linejoin="round" stroke-linecap="round" fill="none" d="M25.25 54.95Q25.25 49.05 30 41.1 33 36.1 42.9 22.85 52.95 36.5 55.7 41.1 60.6 49.05 60.6 54.95 60.6 61.5 55.4 66.2 50.2 70.9 42.9 70.9 35.5 70.9 30.45 66.2 25.25 61.5 25.25 54.95Z"/><animate attributeName="display" repeatCount="indefinite" dur="1s" keyTimes="0;.867;.9;1" values="none;inline;none;none"/></g><g display="none"><path id="Layer86_0_1_STROKES" stroke="#2885C7" stroke-width="2" stroke-linejoin="round" stroke-linecap="round" fill="none" d="M25.25 55.55Q25.25 49.65 30 41.7 33 36.7 42.9 23.45 52.95 37.1 55.7 41.7 60.6 49.65 60.6 55.55 60.6 62.1 55.4 66.8 50.2 71.5 42.9 71.5 35.5 71.5 30.45 66.8 25.25 62.1 25.25 55.55Z"/><animate attributeName="display" repeatCount="indefinite" dur="1s" keyTimes="0;.833;.867;1" values="none;inline;none;none"/></g><g display="none"><path id="Layer85_0_1_STROKES" stroke="#2885C7" stroke-width="2" stroke-linejoin="round" stroke-linecap="round" fill="none" d="M25.25 56.2Q25.25 50.3 30 42.35 33 37.35 42.9 24.1 52.95 37.75 55.7 42.35 60.6 50.3 60.6 56.2 60.6 62.75 55.4 67.45 50.2 72.15 42.9 72.15 35.5 72.15 30.45 67.45 25.25 62.75 25.25 56.2Z"/><animate attributeName="display" repeatCount="indefinite" dur="1s" keyTimes="0;.8;.833;1" values="none;inline;none;none"/></g><g display="none"><path id="Layer84_0_1_STROKES" stroke="#2885C7" stroke-width="2" stroke-linejoin="round" stroke-linecap="round" fill="none" d="M25.25 56.8Q25.25 50.9 30 42.95 33 37.95 42.9 24.7 52.95 38.35 55.7 42.95 60.6 50.9 60.6 56.8 60.6 63.35 55.4 68.05 50.2 72.75 42.9 72.75 35.5 72.75 30.45 68.05 25.25 63.35 25.25 56.8Z"/><animate attributeName="display" repeatCount="indefinite" dur="1s" keyTimes="0;.767;.8;1" values="none;inline;none;none"/></g><g display="none"><path id="Layer83_0_1_STROKES" stroke="#2885C7" stroke-width="2" stroke-linejoin="round" stroke-linecap="round" fill="none" d="M25.25 57.45Q25.25 51.55 30 43.6 33 38.6 42.9 25.35 52.95 39 55.7 43.6 60.6 51.55 60.6 57.45 60.6 64 55.4 68.7 50.2 73.4 42.9 73.4 35.5 73.4 30.45 68.7 25.25 64 25.25 57.45Z"/><animate attributeName="display" repeatCount="indefinite" dur="1s" keyTimes="0;.733;.767;1" values="none;inline;none;none"/></g><g display="none"><path id="Layer82_0_1_STROKES" stroke="#2885C7" stroke-width="2" stroke-linejoin="round" stroke-linecap="round" fill="none" d="M25.25 58.05Q25.25 52.15 30 44.2 33 39.2 42.9 25.95 52.95 39.6 55.7 44.2 60.6 52.15 60.6 58.05 60.6 64.6 55.4 69.3 50.2 74 42.9 74 35.5 74 30.45 69.3 25.25 64.6 25.25 58.05Z"/><animate attributeName="display" repeatCount="indefinite" dur="1s" keyTimes="0;.7;.733;1" values="none;inline;none;none"/></g><g display="none"><path id="Layer81_0_1_STROKES" stroke="#2885C7" stroke-width="2" stroke-linejoin="round" stroke-linecap="round" fill="none" d="M25.25 58.7Q25.25 52.8 30 44.85 33 39.85 42.9 26.6 52.95 40.25 55.7 44.85 60.6 52.8 60.6 58.7 60.6 65.25 55.4 69.95 50.2 74.65 42.9 74.65 35.5 74.65 30.45 69.95 25.25 65.25 25.25 58.7Z"/><animate attributeName="display" repeatCount="indefinite" dur="1s" keyTimes="0;.667;.7;1" values="none;inline;none;none"/></g><g display="none"><path id="Layer80_0_1_STROKES" stroke="#2885C7" stroke-width="2" stroke-linejoin="round" stroke-linecap="round" fill="none" d="M25.25 59.3Q25.25 53.4 30 45.45 33 40.45 42.9 27.2 52.95 40.85 55.7 45.45 60.6 53.4 60.6 59.3 60.6 65.85 55.4 70.55 50.2 75.25 42.9 75.25 35.5 75.25 30.45 70.55 25.25 65.85 25.25 59.3Z"/><animate attributeName="display" repeatCount="indefinite" dur="1s" keyTimes="0;.633;.667;1" values="none;inline;none;none"/></g><g display="none"><path id="Layer79_0_1_STROKES" stroke="#2885C7" stroke-width="2" stroke-linejoin="round" stroke-linecap="round" fill="none" d="M25.25 59.95Q25.25 54.05 30 46.1 33 41.1 42.9 27.85 52.95 41.5 55.7 46.1 60.6 54.05 60.6 59.95 60.6 66.5 55.4 71.2 50.2 75.9 42.9 75.9 35.5 75.9 30.45 71.2 25.25 66.5 25.25 59.95Z"/><animate attributeName="display" repeatCount="indefinite" dur="1s" keyTimes="0;.6;.633;1" values="none;inline;none;none"/></g><g display="none"><path id="Layer78_0_1_STROKES" stroke="#2885C7" stroke-width="2" stroke-linejoin="round" stroke-linecap="round" fill="none" d="M25.25 60.55Q25.25 54.65 30 46.7 33 41.7 42.9 28.45 52.95 42.1 55.7 46.7 60.6 54.65 60.6 60.55 60.6 67.1 55.4 71.8 50.2 76.5 42.9 76.5 35.5 76.5 30.45 71.8 25.25 67.1 25.25 60.55Z"/><animate attributeName="display" repeatCount="indefinite" dur="1s" keyTimes="0;.567;.6;1" values="none;inline;none;none"/></g><g display="none"><path id="Layer77_0_1_STROKES" stroke="#2885C7" stroke-width="2" stroke-linejoin="round" stroke-linecap="round" fill="none" d="M25.25 61.2Q25.25 55.3 30 47.35 33 42.35 42.9 29.1 52.95 42.75 55.7 47.35 60.6 55.3 60.6 61.2 60.6 67.75 55.4 72.45 50.2 77.15 42.9 77.15 35.5 77.15 30.45 72.45 25.25 67.75 25.25 61.2Z"/><animate attributeName="display" repeatCount="indefinite" dur="1s" keyTimes="0;.533;.567;1" values="none;inline;none;none"/></g><g display="none"><g transform="matrix(2.208 0 0 1.994 0 0)"><path id="Layer75_0_1_STROKES" stroke="#2885C7" stroke-width="2" stroke-linejoin="round" stroke-linecap="round" fill="none" d="M42.9 30.35Q33 43.6 30 48.6 25.25 56.55 25.25 62.45 25.25 69 30.45 73.7 35.5 78.4 42.9 78.4 50.2 78.4 55.4 73.7 60.6 69 60.6 62.45 60.6 56.55 55.7 48.6 52.95 44 42.9 30.35Z"/></g><animate attributeName="display" repeatCount="indefinite" dur="1s" keyTimes="0;.467;.5;1" values="none;inline;none;none"/></g><g display="none"><path id="Layer74_0_1_STROKES" stroke="#2885C7" stroke-width="2" stroke-linejoin="round" stroke-linecap="round" fill="none" d="M25.25 61.8Q25.25 55.9 30 47.95 33 42.95 42.9 29.7 52.95 43.35 55.7 47.95 60.6 55.9 60.6 61.8 60.6 68.35 55.4 73.05 50.2 77.75 42.9 77.75 35.5 77.75 30.45 73.05 25.25 68.35 25.25 61.8Z"/><animate attributeName="display" repeatCount="indefinite" dur="1s" keyTimes="0;.433;.467;.5;.533;1" values="none;inline;none;inline;none;none"/></g><g display="none"><path id="Layer73_0_1_STROKES" stroke="#2885C7" stroke-width="2" stroke-linejoin="round" stroke-linecap="round" fill="none" d="M25.25 61.1Q25.25 55.2 30 47.25 33 42.25 42.9 29 52.95 42.65 55.7 47.25 60.6 55.2 60.6 61.1 60.6 67.65 55.4 72.35 50.2 77.05 42.9 77.05 35.5 77.05 30.45 72.35 25.25 67.65 25.25 61.1Z"/><animate attributeName="display" repeatCount="indefinite" dur="1s" keyTimes="0;.4;.433;1" values="none;inline;none;none"/></g><g display="none"><path id="Layer72_0_1_STROKES" stroke="#2885C7" stroke-width="2" stroke-linejoin="round" stroke-linecap="round" fill="none" d="M25.25 60.45Q25.25 54.55 30 46.6 33 41.6 42.9 28.35 52.95 42 55.7 46.6 60.6 54.55 60.6 60.45 60.6 67 55.4 71.7 50.2 76.4 42.9 76.4 35.5 76.4 30.45 71.7 25.25 67 25.25 60.45Z"/><animate attributeName="display" repeatCount="indefinite" dur="1s" keyTimes="0;.367;.4;1" values="none;inline;none;none"/></g><g display="none"><path id="Layer71_0_1_STROKES" stroke="#2885C7" stroke-width="2" stroke-linejoin="round" stroke-linecap="round" fill="none" d="M25.25 59.7Q25.25 53.8 30 45.85 33 40.85 42.9 27.6 52.95 41.25 55.7 45.85 60.6 53.8 60.6 59.7 60.6 66.25 55.4 70.95 50.2 75.65 42.9 75.65 35.5 75.65 30.45 70.95 25.25 66.25 25.25 59.7Z"/><animate attributeName="display" repeatCount="indefinite" dur="1s" keyTimes="0;.333;.367;1" values="none;inline;none;none"/></g><g display="none"><path id="Layer70_0_1_STROKES" stroke="#2885C7" stroke-width="2" stroke-linejoin="round" stroke-linecap="round" fill="none" d="M25.25 59.1Q25.25 53.2 30 45.25 33 40.25 42.9 27 52.95 40.65 55.7 45.25 60.6 53.2 60.6 59.1 60.6 65.65 55.4 70.35 50.2 75.05 42.9 75.05 35.5 75.05 30.45 70.35 25.25 65.65 25.25 59.1Z"/><animate attributeName="display" repeatCount="indefinite" dur="1s" keyTimes="0;.3;.333;1" values="none;inline;none;none"/></g><g display="none"><path id="Layer69_0_1_STROKES" stroke="#2885C7" stroke-width="2" stroke-linejoin="round" stroke-linecap="round" fill="none" d="M25.25 58.35Q25.25 52.45 30 44.5 33 39.5 42.9 26.25 52.95 39.9 55.7 44.5 60.6 52.45 60.6 58.35 60.6 64.9 55.4 69.6 50.2 74.3 42.9 74.3 35.5 74.3 30.45 69.6 25.25 64.9 25.25 58.35Z"/><animate attributeName="display" repeatCount="indefinite" dur="1s" keyTimes="0;.267;.3;1" values="none;inline;none;none"/></g><g display="none"><path id="Layer68_0_1_STROKES" stroke="#2885C7" stroke-width="2" stroke-linejoin="round" stroke-linecap="round" fill="none" d="M25.25 57.7Q25.25 51.8 30 43.85 33 38.85 42.9 25.6 52.95 39.25 55.7 43.85 60.6 51.8 60.6 57.7 60.6 64.25 55.4 68.95 50.2 73.65 42.9 73.65 35.5 73.65 30.45 68.95 25.25 64.25 25.25 57.7Z"/><animate attributeName="display" repeatCount="indefinite" dur="1s" keyTimes="0;.233;.267;1" values="none;inline;none;none"/></g><g display="none"><path id="Layer67_0_1_STROKES" stroke="#2885C7" stroke-width="2" stroke-linejoin="round" stroke-linecap="round" fill="none" d="M25.25 57.1Q25.25 51.2 30 43.25 33 38.25 42.9 25 52.95 38.65 55.7 43.25 60.6 51.2 60.6 57.1 60.6 63.65 55.4 68.35 50.2 73.05 42.9 73.05 35.5 73.05 30.45 68.35 25.25 63.65 25.25 57.1Z"/><animate attributeName="display" repeatCount="indefinite" dur="1s" keyTimes="0;.2;.233;1" values="none;inline;none;none"/></g><g display="none"><path id="Layer66_0_1_STROKES" stroke="#2885C7" stroke-width="2" stroke-linejoin="round" stroke-linecap="round" fill="none" d="M25.25 56.35Q25.25 50.45 30 42.5 33 37.5 42.9 24.25 52.95 37.9 55.7 42.5 60.6 50.45 60.6 56.35 60.6 62.9 55.4 67.6 50.2 72.3 42.9 72.3 35.5 72.3 30.45 67.6 25.25 62.9 25.25 56.35Z"/><animate attributeName="display" repeatCount="indefinite" dur="1s" keyTimes="0;.167;.2;1" values="none;inline;none;none"/></g><g display="none"><path id="Layer65_0_1_STROKES" stroke="#2885C7" stroke-width="2" stroke-linejoin="round" stroke-linecap="round" fill="none" d="M25.25 55.7Q25.25 49.8 30 41.85 33 36.85 42.9 23.6 52.95 37.25 55.7 41.85 60.6 49.8 60.6 55.7 60.6 62.25 55.4 66.95 50.2 71.65 42.9 71.65 35.5 71.65 30.45 66.95 25.25 62.25 25.25 55.7Z"/><animate attributeName="display" repeatCount="indefinite" dur="1s" keyTimes="0;.133;.167;1" values="none;inline;none;none"/></g><g display="none"><path id="Layer64_0_1_STROKES" stroke="#2885C7" stroke-width="2" stroke-linejoin="round" stroke-linecap="round" fill="none" d="M25.25 55.05Q25.25 49.15 30 41.2 33 36.2 42.9 22.95 52.95 36.6 55.7 41.2 60.6 49.15 60.6 55.05 60.6 61.6 55.4 66.3 50.2 71 42.9 71 35.5 71 30.45 66.3 25.25 61.6 25.25 55.05Z"/><animate attributeName="display" repeatCount="indefinite" dur="1s" keyTimes="0;.1;.133;1" values="none;inline;none;none"/></g><g display="none"><path id="Layer63_0_1_STROKES" stroke="#2885C7" stroke-width="2" stroke-linejoin="round" stroke-linecap="round" fill="none" d="M25.25 54.35Q25.25 48.45 30 40.5 33 35.5 42.9 22.25 52.95 35.9 55.7 40.5 60.6 48.45 60.6 54.35 60.6 60.9 55.4 65.6 50.2 70.3 42.9 70.3 35.5 70.3 30.45 65.6 25.25 60.9 25.25 54.35Z"/><animate attributeName="display" repeatCount="indefinite" dur="1s" keyTimes="0;.067;.1;1" values="none;inline;none;none"/></g><g display="none"><path id="Layer62_0_1_STROKES" stroke="#2885C7" stroke-width="2" stroke-linejoin="round" stroke-linecap="round" fill="none" d="M25.25 53.7Q25.25 47.8 30 39.85 33 34.85 42.9 21.6 52.95 35.25 55.7 39.85 60.6 47.8 60.6 53.7 60.6 60.25 55.4 64.95 50.2 69.65 42.9 69.65 35.5 69.65 30.45 64.95 25.25 60.25 25.25 53.7Z"/><animate attributeName="display" repeatCount="indefinite" dur="1s" keyTimes="0;.033;.067;.933;.967;1" values="none;inline;none;inline;none;none"/></g><g><g transform="matrix(2.208 0 0 1.994 0 0)"><path id="Layer61_0_1_STROKES" stroke="#2885C7" stroke-width="2" stroke-linejoin="round" stroke-linecap="round" fill="none" d="M42.9 20.95Q33 34.2 30 39.2 25.25 47.15 25.25 53.05 25.25 59.6 30.45 64.3 35.5 69 42.9 69 50.2 69 55.4 64.3 60.6 59.6 60.6 53.05 60.6 47.15 55.7 39.2 52.95 34.6 42.9 20.95Z"/></g><animate attributeName="display" repeatCount="indefinite" dur="1s" keyTimes="0;.033;1" values="inline;none;none"/></g><g display="none"><g transform="matrix(.901 0 0 .901 0 0)"><path id="Layer60_0_1_STROKES" stroke="#2885C7" stroke-width="2" stroke-linejoin="round" stroke-linecap="round" fill="none" d="M21.6 30.05Q17.55 36.05 16.35 38.3 14.4 41.9 14.4 44.55 14.4 47.55 16.55 49.65 18.6 51.75 21.6 51.75 24.6 51.75 26.7 49.65 28.8 47.55 28.8 44.55 28.8 41.9 26.85 38.3 25.7 36.25 21.6 30.05Z"/></g><animate attributeName="display" repeatCount="indefinite" dur="1s" keyTimes="0;.967;1" values="none;inline;inline"/></g><g display="none"><path id="Layer59_0_1_STROKES" stroke="#2885C7" stroke-width="2" stroke-linejoin="round" stroke-linecap="round" fill="none" d="M14.4 45.45Q14.4 42.8 16.35 39.2 17.55 36.95 21.6 30.95 25.7 37.15 26.85 39.2 28.8 42.8 28.8 45.45 28.8 48.45 26.7 50.55 24.6 52.65 21.6 52.65 18.6 52.65 16.55 50.55 14.4 48.45 14.4 45.45Z"/><animate attributeName="display" repeatCount="indefinite" dur="1s" keyTimes="0;.933;.967;1" values="none;inline;none;none"/></g><g display="none"><path id="Layer58_0_1_STROKES" stroke="#2885C7" stroke-width="2" stroke-linejoin="round" stroke-linecap="round" fill="none" d="M14.4 46.4Q14.4 43.75 16.35 40.15 17.55 37.9 21.6 31.9 25.7 38.1 26.85 40.15 28.8 43.75 28.8 46.4 28.8 49.4 26.7 51.5 24.6 53.6 21.6 53.6 18.6 53.6 16.55 51.5 14.4 49.4 14.4 46.4Z"/><animate attributeName="display" repeatCount="indefinite" dur="1s" keyTimes="0;.9;.933;1" values="none;inline;none;none"/></g><g display="none"><path id="Layer57_0_1_STROKES" stroke="#2885C7" stroke-width="2" stroke-linejoin="round" stroke-linecap="round" fill="none" d="M14.4 47.4Q14.4 44.75 16.35 41.15 17.55 38.9 21.6 32.9 25.7 39.1 26.85 41.15 28.8 44.75 28.8 47.4 28.8 50.4 26.7 52.5 24.6 54.6 21.6 54.6 18.6 54.6 16.55 52.5 14.4 50.4 14.4 47.4Z"/><animate attributeName="display" repeatCount="indefinite" dur="1s" keyTimes="0;.867;.9;1" values="none;inline;none;none"/></g><g display="none"><path id="Layer56_0_1_STROKES" stroke="#2885C7" stroke-width="2" stroke-linejoin="round" stroke-linecap="round" fill="none" d="M14.4 48.4Q14.4 45.75 16.35 42.15 17.55 39.9 21.6 33.9 25.7 40.1 26.85 42.15 28.8 45.75 28.8 48.4 28.8 51.4 26.7 53.5 24.6 55.6 21.6 55.6 18.6 55.6 16.55 53.5 14.4 51.4 14.4 48.4Z"/><animate attributeName="display" repeatCount="indefinite" dur="1s" keyTimes="0;.833;.867;1" values="none;inline;none;none"/></g><g display="none"><path id="Layer55_0_1_STROKES" stroke="#2885C7" stroke-width="2" stroke-linejoin="round" stroke-linecap="round" fill="none" d="M14.4 49.35Q14.4 46.7 16.35 43.1 17.55 40.85 21.6 34.85 25.7 41.05 26.85 43.1 28.8 46.7 28.8 49.35 28.8 52.35 26.7 54.45 24.6 56.55 21.6 56.55 18.6 56.55 16.55 54.45 14.4 52.35 14.4 49.35Z"/><animate attributeName="display" repeatCount="indefinite" dur="1s" keyTimes="0;.8;.833;1" values="none;inline;none;none"/></g><g display="none"><path id="Layer54_0_1_STROKES" stroke="#2885C7" stroke-width="2" stroke-linejoin="round" stroke-linecap="round" fill="none" d="M14.4 50.35Q14.4 47.7 16.35 44.1 17.55 41.85 21.6 35.85 25.7 42.05 26.85 44.1 28.8 47.7 28.8 50.35 28.8 53.35 26.7 55.45 24.6 57.55 21.6 57.55 18.6 57.55 16.55 55.45 14.4 53.35 14.4 50.35Z"/><animate attributeName="display" repeatCount="indefinite" dur="1s" keyTimes="0;.767;.8;1" values="none;inline;none;none"/></g><g display="none"><path id="Layer53_0_1_STROKES" stroke="#2885C7" stroke-width="2" stroke-linejoin="round" stroke-linecap="round" fill="none" d="M14.4 51.25Q14.4 48.6 16.35 45 17.55 42.75 21.6 36.75 25.7 42.95 26.85 45 28.8 48.6 28.8 51.25 28.8 54.25 26.7 56.35 24.6 58.45 21.6 58.45 18.6 58.45 16.55 56.35 14.4 54.25 14.4 51.25Z"/><animate attributeName="display" repeatCount="indefinite" dur="1s" keyTimes="0;.733;.767;1" values="none;inline;none;none"/></g><g display="none"><path id="Layer52_0_1_STROKES" stroke="#2885C7" stroke-width="2" stroke-linejoin="round" stroke-linecap="round" fill="none" d="M14.4 52.25Q14.4 49.6 16.35 46 17.55 43.75 21.6 37.75 25.7 43.95 26.85 46 28.8 49.6 28.8 52.25 28.8 55.25 26.7 57.35 24.6 59.45 21.6 59.45 18.6 59.45 16.55 57.35 14.4 55.25 14.4 52.25Z"/><animate attributeName="display" repeatCount="indefinite" dur="1s" keyTimes="0;.7;.733;1" values="none;inline;none;none"/></g><g display="none"><path id="Layer51_0_1_STROKES" stroke="#2885C7" stroke-width="2" stroke-linejoin="round" stroke-linecap="round" fill="none" d="M14.4 53.25Q14.4 50.6 16.35 47 17.55 44.75 21.6 38.75 25.7 44.95 26.85 47 28.8 50.6 28.8 53.25 28.8 56.25 26.7 58.35 24.6 60.45 21.6 60.45 18.6 60.45 16.55 58.35 14.4 56.25 14.4 53.25Z"/><animate attributeName="display" repeatCount="indefinite" dur="1s" keyTimes="0;.667;.7;1" values="none;inline;none;none"/></g><g display="none"><path id="Layer50_0_1_STROKES" stroke="#2885C7" stroke-width="2" stroke-linejoin="round" stroke-linecap="round" fill="none" d="M14.4 54.25Q14.4 51.6 16.35 48 17.55 45.75 21.6 39.75 25.7 45.95 26.85 48 28.8 51.6 28.8 54.25 28.8 57.25 26.7 59.35 24.6 61.45 21.6 61.45 18.6 61.45 16.55 59.35 14.4 57.25 14.4 54.25Z"/><animate attributeName="display" repeatCount="indefinite" dur="1s" keyTimes="0;.633;.667;1" values="none;inline;none;none"/></g><g display="none"><path id="Layer49_0_1_STROKES" stroke="#2885C7" stroke-width="2" stroke-linejoin="round" stroke-linecap="round" fill="none" d="M14.4 55.15Q14.4 52.5 16.35 48.9 17.55 46.65 21.6 40.65 25.7 46.85 26.85 48.9 28.8 52.5 28.8 55.15 28.8 58.15 26.7 60.25 24.6 62.35 21.6 62.35 18.6 62.35 16.55 60.25 14.4 58.15 14.4 55.15Z"/><animate attributeName="display" repeatCount="indefinite" dur="1s" keyTimes="0;.6;.633;1" values="none;inline;none;none"/></g><g display="none"><path id="Layer48_0_1_STROKES" stroke="#2885C7" stroke-width="2" stroke-linejoin="round" stroke-linecap="round" fill="none" d="M14.4 56.15Q14.4 53.5 16.35 49.9 17.55 47.65 21.6 41.65 25.7 47.85 26.85 49.9 28.8 53.5 28.8 56.15 28.8 59.15 26.7 61.25 24.6 63.35 21.6 63.35 18.6 63.35 16.55 61.25 14.4 59.15 14.4 56.15Z"/><animate attributeName="display" repeatCount="indefinite" dur="1s" keyTimes="0;.567;.6;1" values="none;inline;none;none"/></g><g display="none"><path id="Layer47_0_1_STROKES" stroke="#2885C7" stroke-width="2" stroke-linejoin="round" stroke-linecap="round" fill="none" d="M14.4 57.15Q14.4 54.5 16.35 50.9 17.55 48.65 21.6 42.65 25.7 48.85 26.85 50.9 28.8 54.5 28.8 57.15 28.8 60.15 26.7 62.25 24.6 64.35 21.6 64.35 18.6 64.35 16.55 62.25 14.4 60.15 14.4 57.15Z"/><animate attributeName="display" repeatCount="indefinite" dur="1s" keyTimes="0;.533;.567;1" values="none;inline;none;none"/></g><g display="none"><path id="Layer46_0_1_STROKES" stroke="#2885C7" stroke-width="2" stroke-linejoin="round" stroke-linecap="round" fill="none" d="M14.4 58.15Q14.4 55.5 16.35 51.9 17.55 49.65 21.6 43.65 25.7 49.85 26.85 51.9 28.8 55.5 28.8 58.15 28.8 61.15 26.7 63.25 24.6 65.35 21.6 65.35 18.6 65.35 16.55 63.25 14.4 61.15 14.4 58.15Z"/><animate attributeName="display" repeatCount="indefinite" dur="1s" keyTimes="0;.5;.533;1" values="none;inline;none;none"/></g><g display="none"><g transform="matrix(.901 0 0 .901 0 0)"><path id="Layer45_0_1_STROKES" stroke="#2885C7" stroke-width="2" stroke-linejoin="round" stroke-linecap="round" fill="none" d="M21.6 44.6Q17.55 50.6 16.35 52.85 14.4 56.45 14.4 59.1 14.4 62.1 16.55 64.2 18.6 66.3 21.6 66.3 24.6 66.3 26.7 64.2 28.8 62.1 28.8 59.1 28.8 56.45 26.85 52.85 25.7 50.8 21.6 44.6Z"/></g><animate attributeName="display" repeatCount="indefinite" dur="1s" keyTimes="0;.467;.5;1" values="none;inline;none;none"/></g><g display="none"><path id="Layer44_0_1_STROKES" stroke="#2885C7" stroke-width="2" stroke-linejoin="round" stroke-linecap="round" fill="none" d="M14.4 58Q14.4 55.35 16.35 51.75 17.55 49.5 21.6 43.5 25.7 49.7 26.85 51.75 28.8 55.35 28.8 58 28.8 61 26.7 63.1 24.6 65.2 21.6 65.2 18.6 65.2 16.55 63.1 14.4 61 14.4 58Z"/><animate attributeName="display" repeatCount="indefinite" dur="1s" keyTimes="0;.433;.467;1" values="none;inline;none;none"/></g><g display="none"><path id="Layer43_0_1_STROKES" stroke="#2885C7" stroke-width="2" stroke-linejoin="round" stroke-linecap="round" fill="none" d="M14.4 57Q14.4 54.35 16.35 50.75 17.55 48.5 21.6 42.5 25.7 48.7 26.85 50.75 28.8 54.35 28.8 57 28.8 60 26.7 62.1 24.6 64.2 21.6 64.2 18.6 64.2 16.55 62.1 14.4 60 14.4 57Z"/><animate attributeName="display" repeatCount="indefinite" dur="1s" keyTimes="0;.4;.433;1" values="none;inline;none;none"/></g><g display="none"><path id="Layer42_0_1_STROKES" stroke="#2885C7" stroke-width="2" stroke-linejoin="round" stroke-linecap="round" fill="none" d="M14.4 55.9Q14.4 53.25 16.35 49.65 17.55 47.4 21.6 41.4 25.7 47.6 26.85 49.65 28.8 53.25 28.8 55.9 28.8 58.9 26.7 61 24.6 63.1 21.6 63.1 18.6 63.1 16.55 61 14.4 58.9 14.4 55.9Z"/><animate attributeName="display" repeatCount="indefinite" dur="1s" keyTimes="0;.367;.4;1" values="none;inline;none;none"/></g><g display="none"><path id="Layer41_0_1_STROKES" stroke="#2885C7" stroke-width="2" stroke-linejoin="round" stroke-linecap="round" fill="none" d="M14.4 54.9Q14.4 52.25 16.35 48.65 17.55 46.4 21.6 40.4 25.7 46.6 26.85 48.65 28.8 52.25 28.8 54.9 28.8 57.9 26.7 60 24.6 62.1 21.6 62.1 18.6 62.1 16.55 60 14.4 57.9 14.4 54.9Z"/><animate attributeName="display" repeatCount="indefinite" dur="1s" keyTimes="0;.333;.367;1" values="none;inline;none;none"/></g><g display="none"><path id="Layer40_0_1_STROKES" stroke="#2885C7" stroke-width="2" stroke-linejoin="round" stroke-linecap="round" fill="none" d="M14.4 53.9Q14.4 51.25 16.35 47.65 17.55 45.4 21.6 39.4 25.7 45.6 26.85 47.65 28.8 51.25 28.8 53.9 28.8 56.9 26.7 59 24.6 61.1 21.6 61.1 18.6 61.1 16.55 59 14.4 56.9 14.4 53.9Z"/><animate attributeName="display" repeatCount="indefinite" dur="1s" keyTimes="0;.3;.333;1" values="none;inline;none;none"/></g><g display="none"><path id="Layer39_0_1_STROKES" stroke="#2885C7" stroke-width="2" stroke-linejoin="round" stroke-linecap="round" fill="none" d="M14.4 52.85Q14.4 50.2 16.35 46.6 17.55 44.35 21.6 38.35 25.7 44.55 26.85 46.6 28.8 50.2 28.8 52.85 28.8 55.85 26.7 57.95 24.6 60.05 21.6 60.05 18.6 60.05 16.55 57.95 14.4 55.85 14.4 52.85Z"/><animate attributeName="display" repeatCount="indefinite" dur="1s" keyTimes="0;.267;.3;1" values="none;inline;none;none"/></g><g display="none"><path id="Layer38_0_1_STROKES" stroke="#2885C7" stroke-width="2" stroke-linejoin="round" stroke-linecap="round" fill="none" d="M14.4 51.75Q14.4 49.1 16.35 45.5 17.55 43.25 21.6 37.25 25.7 43.45 26.85 45.5 28.8 49.1 28.8 51.75 28.8 54.75 26.7 56.85 24.6 58.95 21.6 58.95 18.6 58.95 16.55 56.85 14.4 54.75 14.4 51.75Z"/><animate attributeName="display" repeatCount="indefinite" dur="1s" keyTimes="0;.233;.267;1" values="none;inline;none;none"/></g><g display="none"><path id="Layer37_0_1_STROKES" stroke="#2885C7" stroke-width="2" stroke-linejoin="round" stroke-linecap="round" fill="none" d="M14.4 50.75Q14.4 48.1 16.35 44.5 17.55 42.25 21.6 36.25 25.7 42.45 26.85 44.5 28.8 48.1 28.8 50.75 28.8 53.75 26.7 55.85 24.6 57.95 21.6 57.95 18.6 57.95 16.55 55.85 14.4 53.75 14.4 50.75Z"/><animate attributeName="display" repeatCount="indefinite" dur="1s" keyTimes="0;.2;.233;1" values="none;inline;none;none"/></g><g display="none"><path id="Layer36_0_1_STROKES" stroke="#2885C7" stroke-width="2" stroke-linejoin="round" stroke-linecap="round" fill="none" d="M14.4 49.65Q14.4 47 16.35 43.4 17.55 41.15 21.6 35.15 25.7 41.35 26.85 43.4 28.8 47 28.8 49.65 28.8 52.65 26.7 54.75 24.6 56.85 21.6 56.85 18.6 56.85 16.55 54.75 14.4 52.65 14.4 49.65Z"/><animate attributeName="display" repeatCount="indefinite" dur="1s" keyTimes="0;.167;.2;1" values="none;inline;none;none"/></g><g display="none"><path id="Layer35_0_1_STROKES" stroke="#2885C7" stroke-width="2" stroke-linejoin="round" stroke-linecap="round" fill="none" d="M14.4 48.65Q14.4 46 16.35 42.4 17.55 40.15 21.6 34.15 25.7 40.35 26.85 42.4 28.8 46 28.8 48.65 28.8 51.65 26.7 53.75 24.6 55.85 21.6 55.85 18.6 55.85 16.55 53.75 14.4 51.65 14.4 48.65Z"/><animate attributeName="display" repeatCount="indefinite" dur="1s" keyTimes="0;.133;.167;1" values="none;inline;none;none"/></g><g display="none"><path id="Layer34_0_1_STROKES" stroke="#2885C7" stroke-width="2" stroke-linejoin="round" stroke-linecap="round" fill="none" d="M14.4 47.65Q14.4 45 16.35 41.4 17.55 39.15 21.6 33.15 25.7 39.35 26.85 41.4 28.8 45 28.8 47.65 28.8 50.65 26.7 52.75 24.6 54.85 21.6 54.85 18.6 54.85 16.55 52.75 14.4 50.65 14.4 47.65Z"/><animate attributeName="display" repeatCount="indefinite" dur="1s" keyTimes="0;.1;.133;1" values="none;inline;none;none"/></g><g display="none"><path id="Layer33_0_1_STROKES" stroke="#2885C7" stroke-width="2" stroke-linejoin="round" stroke-linecap="round" fill="none" d="M14.4 46.6Q14.4 43.95 16.35 40.35 17.55 38.1 21.6 32.1 25.7 38.3 26.85 40.35 28.8 43.95 28.8 46.6 28.8 49.6 26.7 51.7 24.6 53.8 21.6 53.8 18.6 53.8 16.55 51.7 14.4 49.6 14.4 46.6Z"/><animate attributeName="display" repeatCount="indefinite" dur="1s" keyTimes="0;.067;.1;1" values="none;inline;none;none"/></g><g display="none"><path id="Layer32_0_1_STROKES" stroke="#2885C7" stroke-width="2" stroke-linejoin="round" stroke-linecap="round" fill="none" d="M14.4 45.55Q14.4 42.9 16.35 39.3 17.55 37.05 21.6 31.05 25.7 37.25 26.85 39.3 28.8 42.9 28.8 45.55 28.8 48.55 26.7 50.65 24.6 52.75 21.6 52.75 18.6 52.75 16.55 50.65 14.4 48.55 14.4 45.55Z"/><animate attributeName="display" repeatCount="indefinite" dur="1s" keyTimes="0;.033;.067;1" values="none;inline;none;none"/></g><g><g transform="matrix(.901 0 0 .901 0 0)"><path id="Layer31_0_1_STROKES" stroke="#2885C7" stroke-width="2" stroke-linejoin="round" stroke-linecap="round" fill="none" d="M21.6 30.05Q17.55 36.05 16.35 38.3 14.4 41.9 14.4 44.55 14.4 47.55 16.55 49.65 18.6 51.75 21.6 51.75 24.6 51.75 26.7 49.65 28.8 47.55 28.8 44.55 28.8 41.9 26.85 38.3 25.7 36.25 21.6 30.05Z"/></g><animate attributeName="display" repeatCount="indefinite" dur="1s" keyTimes="0;.033;1" values="inline;none;none"/></g><g display="none"><g transform="matrix(1.482 0 0 1.482 0 0)"><path id="Layer30_0_1_STROKES" stroke="#2885C7" stroke-width="2" stroke-linejoin="round" stroke-linecap="round" fill="none" d="M60.8 11.25Q54.1 21.1 52.1 24.8 48.95 30.75 48.95 35.1 48.95 40 52.4 43.5 55.8 46.95 60.8 46.95 65.7 46.95 69.15 43.5 72.65 40 72.65 35.1 72.65 30.75 69.4 24.8 67.55 21.4 60.8 11.25Z"/></g><animate attributeName="display" repeatCount="indefinite" dur="1s" keyTimes="0;.967;1" values="none;inline;inline"/></g><g display="none"><path id="Layer29_0_1_STROKES" stroke="#2885C7" stroke-width="2" stroke-linejoin="round" stroke-linecap="round" fill="none" d="M48.95 36.8Q48.95 32.45 52.1 26.5 54.1 22.8 60.8 12.95 67.55 23.1 69.4 26.5 72.65 32.45 72.65 36.8 72.65 41.7 69.15 45.2 65.7 48.65 60.8 48.65 55.8 48.65 52.4 45.2 48.95 41.7 48.95 36.8Z"/><animate attributeName="display" repeatCount="indefinite" dur="1s" keyTimes="0;.933;.967;1" values="none;inline;none;none"/></g><g display="none"><path id="Layer28_0_1_STROKES" stroke="#2885C7" stroke-width="2" stroke-linejoin="round" stroke-linecap="round" fill="none" d="M48.95 38.55Q48.95 34.2 52.1 28.25 54.1 24.55 60.8 14.7 67.55 24.85 69.4 28.25 72.65 34.2 72.65 38.55 72.65 43.45 69.15 46.95 65.7 50.4 60.8 50.4 55.8 50.4 52.4 46.95 48.95 43.45 48.95 38.55Z"/><animate attributeName="display" repeatCount="indefinite" dur="1s" keyTimes="0;.9;.933;1" values="none;inline;none;none"/></g><g display="none"><path id="Layer27_0_1_STROKES" stroke="#2885C7" stroke-width="2" stroke-linejoin="round" stroke-linecap="round" fill="none" d="M48.95 40.25Q48.95 35.9 52.1 29.95 54.1 26.25 60.8 16.4 67.55 26.55 69.4 29.95 72.65 35.9 72.65 40.25 72.65 45.15 69.15 48.65 65.7 52.1 60.8 52.1 55.8 52.1 52.4 48.65 48.95 45.15 48.95 40.25Z"/><animate attributeName="display" repeatCount="indefinite" dur="1s" keyTimes="0;.867;.9;1" values="none;inline;none;none"/></g><g display="none"><path id="Layer26_0_1_STROKES" stroke="#2885C7" stroke-width="2" stroke-linejoin="round" stroke-linecap="round" fill="none" d="M48.95 42Q48.95 37.65 52.1 31.7 54.1 28 60.8 18.15 67.55 28.3 69.4 31.7 72.65 37.65 72.65 42 72.65 46.9 69.15 50.4 65.7 53.85 60.8 53.85 55.8 53.85 52.4 50.4 48.95 46.9 48.95 42Z"/><animate attributeName="display" repeatCount="indefinite" dur="1s" keyTimes="0;.833;.867;1" values="none;inline;none;none"/></g><g display="none"><path id="Layer25_0_1_STROKES" stroke="#2885C7" stroke-width="2" stroke-linejoin="round" stroke-linecap="round" fill="none" d="M48.95 43.75Q48.95 39.4 52.1 33.45 54.1 29.75 60.8 19.9 67.55 30.05 69.4 33.45 72.65 39.4 72.65 43.75 72.65 48.65 69.15 52.15 65.7 55.6 60.8 55.6 55.8 55.6 52.4 52.15 48.95 48.65 48.95 43.75Z"/><animate attributeName="display" repeatCount="indefinite" dur="1s" keyTimes="0;.8;.833;1" values="none;inline;none;none"/></g><g display="none"><path id="Layer24_0_1_STROKES" stroke="#2885C7" stroke-width="2" stroke-linejoin="round" stroke-linecap="round" fill="none" d="M48.95 45.4Q48.95 41.05 52.1 35.1 54.1 31.4 60.8 21.55 67.55 31.7 69.4 35.1 72.65 41.05 72.65 45.4 72.65 50.3 69.15 53.8 65.7 57.25 60.8 57.25 55.8 57.25 52.4 53.8 48.95 50.3 48.95 45.4Z"/><animate attributeName="display" repeatCount="indefinite" dur="1s" keyTimes="0;.767;.8;1" values="none;inline;none;none"/></g><g display="none"><path id="Layer23_0_1_STROKES" stroke="#2885C7" stroke-width="2" stroke-linejoin="round" stroke-linecap="round" fill="none" d="M48.95 47.15Q48.95 42.8 52.1 36.85 54.1 33.15 60.8 23.3 67.55 33.45 69.4 36.85 72.65 42.8 72.65 47.15 72.65 52.05 69.15 55.55 65.7 59 60.8 59 55.8 59 52.4 55.55 48.95 52.05 48.95 47.15Z"/><animate attributeName="display" repeatCount="indefinite" dur="1s" keyTimes="0;.733;.767;1" values="none;inline;none;none"/></g><g display="none"><path id="Layer22_0_1_STROKES" stroke="#2885C7" stroke-width="2" stroke-linejoin="round" stroke-linecap="round" fill="none" d="M48.95 48.85Q48.95 44.5 52.1 38.55 54.1 34.85 60.8 25 67.55 35.15 69.4 38.55 72.65 44.5 72.65 48.85 72.65 53.75 69.15 57.25 65.7 60.7 60.8 60.7 55.8 60.7 52.4 57.25 48.95 53.75 48.95 48.85Z"/><animate attributeName="display" repeatCount="indefinite" dur="1s" keyTimes="0;.7;.733;1" values="none;inline;none;none"/></g><g display="none"><path id="Layer21_0_1_STROKES" stroke="#2885C7" stroke-width="2" stroke-linejoin="round" stroke-linecap="round" fill="none" d="M48.95 50.6Q48.95 46.25 52.1 40.3 54.1 36.6 60.8 26.75 67.55 36.9 69.4 40.3 72.65 46.25 72.65 50.6 72.65 55.5 69.15 59 65.7 62.45 60.8 62.45 55.8 62.45 52.4 59 48.95 55.5 48.95 50.6Z"/><animate attributeName="display" repeatCount="indefinite" dur="1s" keyTimes="0;.667;.7;1" values="none;inline;none;none"/></g><g display="none"><path id="Layer20_0_1_STROKES" stroke="#2885C7" stroke-width="2" stroke-linejoin="round" stroke-linecap="round" fill="none" d="M48.95 52.25Q48.95 47.9 52.1 41.95 54.1 38.25 60.8 28.4 67.55 38.55 69.4 41.95 72.65 47.9 72.65 52.25 72.65 57.15 69.15 60.65 65.7 64.1 60.8 64.1 55.8 64.1 52.4 60.65 48.95 57.15 48.95 52.25Z"/><animate attributeName="display" repeatCount="indefinite" dur="1s" keyTimes="0;.633;.667;1" values="none;inline;none;none"/></g><g display="none"><path id="Layer19_0_1_STROKES" stroke="#2885C7" stroke-width="2" stroke-linejoin="round" stroke-linecap="round" fill="none" d="M48.95 54Q48.95 49.65 52.1 43.7 54.1 40 60.8 30.15 67.55 40.3 69.4 43.7 72.65 49.65 72.65 54 72.65 58.9 69.15 62.4 65.7 65.85 60.8 65.85 55.8 65.85 52.4 62.4 48.95 58.9 48.95 54Z"/><animate attributeName="display" repeatCount="indefinite" dur="1s" keyTimes="0;.6;.633;1" values="none;inline;none;none"/></g><g display="none"><path id="Layer18_0_1_STROKES" stroke="#2885C7" stroke-width="2" stroke-linejoin="round" stroke-linecap="round" fill="none" d="M48.95 55.75Q48.95 51.4 52.1 45.45 54.1 41.75 60.8 31.9 67.55 42.05 69.4 45.45 72.65 51.4 72.65 55.75 72.65 60.65 69.15 64.15 65.7 67.6 60.8 67.6 55.8 67.6 52.4 64.15 48.95 60.65 48.95 55.75Z"/><animate attributeName="display" repeatCount="indefinite" dur="1s" keyTimes="0;.567;.6;1" values="none;inline;none;none"/></g><g display="none"><path id="Layer17_0_1_STROKES" stroke="#2885C7" stroke-width="2" stroke-linejoin="round" stroke-linecap="round" fill="none" d="M48.95 57.45Q48.95 53.1 52.1 47.15 54.1 43.45 60.8 33.6 67.55 43.75 69.4 47.15 72.65 53.1 72.65 57.45 72.65 62.35 69.15 65.85 65.7 69.3 60.8 69.3 55.8 69.3 52.4 65.85 48.95 62.35 48.95 57.45Z"/><animate attributeName="display" repeatCount="indefinite" dur="1s" keyTimes="0;.533;.567;1" values="none;inline;none;none"/></g><g display="none"><path id="Layer16_0_1_STROKES" stroke="#2885C7" stroke-width="2" stroke-linejoin="round" stroke-linecap="round" fill="none" d="M48.95 59.2Q48.95 54.85 52.1 48.9 54.1 45.2 60.8 35.35 67.55 45.5 69.4 48.9 72.65 54.85 72.65 59.2 72.65 64.1 69.15 67.6 65.7 71.05 60.8 71.05 55.8 71.05 52.4 67.6 48.95 64.1 48.95 59.2Z"/><animate attributeName="display" repeatCount="indefinite" dur="1s" keyTimes="0;.5;.533;1" values="none;inline;none;none"/></g><g display="none"><g transform="matrix(1.482 0 0 1.482 0 0)"><path id="Layer15_0_1_STROKES" stroke="#2885C7" stroke-width="2" stroke-linejoin="round" stroke-linecap="round" fill="none" d="M60.8 37.05Q54.1 46.9 52.1 50.6 48.95 56.55 48.95 60.9 48.95 65.8 52.4 69.3 55.8 72.75 60.8 72.75 65.7 72.75 69.15 69.3 72.65 65.8 72.65 60.9 72.65 56.55 69.4 50.6 67.55 47.2 60.8 37.05Z"/></g><animate attributeName="display" repeatCount="indefinite" dur="1s" keyTimes="0;.467;.5;1" values="none;inline;none;none"/></g><g display="none"><path id="Layer14_0_1_STROKES" stroke="#2885C7" stroke-width="2" stroke-linejoin="round" stroke-linecap="round" fill="none" d="M48.95 59Q48.95 54.65 52.1 48.7 54.1 45 60.8 35.15 67.55 45.3 69.4 48.7 72.65 54.65 72.65 59 72.65 63.9 69.15 67.4 65.7 70.85 60.8 70.85 55.8 70.85 52.4 67.4 48.95 63.9 48.95 59Z"/><animate attributeName="display" repeatCount="indefinite" dur="1s" keyTimes="0;.433;.467;1" values="none;inline;none;none"/></g><g display="none"><path id="Layer13_0_1_STROKES" stroke="#2885C7" stroke-width="2" stroke-linejoin="round" stroke-linecap="round" fill="none" d="M48.95 57.2Q48.95 52.85 52.1 46.9 54.1 43.2 60.8 33.35 67.55 43.5 69.4 46.9 72.65 52.85 72.65 57.2 72.65 62.1 69.15 65.6 65.7 69.05 60.8 69.05 55.8 69.05 52.4 65.6 48.95 62.1 48.95 57.2Z"/><animate attributeName="display" repeatCount="indefinite" dur="1s" keyTimes="0;.4;.433;1" values="none;inline;none;none"/></g><g display="none"><path id="Layer12_0_1_STROKES" stroke="#2885C7" stroke-width="2" stroke-linejoin="round" stroke-linecap="round" fill="none" d="M48.95 55.35Q48.95 51 52.1 45.05 54.1 41.35 60.8 31.5 67.55 41.65 69.4 45.05 72.65 51 72.65 55.35 72.65 60.25 69.15 63.75 65.7 67.2 60.8 67.2 55.8 67.2 52.4 63.75 48.95 60.25 48.95 55.35Z"/><animate attributeName="display" repeatCount="indefinite" dur="1s" keyTimes="0;.367;.4;1" values="none;inline;none;none"/></g><g display="none"><path id="Layer11_0_1_STROKES" stroke="#2885C7" stroke-width="2" stroke-linejoin="round" stroke-linecap="round" fill="none" d="M48.95 53.5Q48.95 49.15 52.1 43.2 54.1 39.5 60.8 29.65 67.55 39.8 69.4 43.2 72.65 49.15 72.65 53.5 72.65 58.4 69.15 61.9 65.7 65.35 60.8 65.35 55.8 65.35 52.4 61.9 48.95 58.4 48.95 53.5Z"/><animate attributeName="display" repeatCount="indefinite" dur="1s" keyTimes="0;.333;.367;1" values="none;inline;none;none"/></g><g display="none"><path id="Layer10_0_1_STROKES" stroke="#2885C7" stroke-width="2" stroke-linejoin="round" stroke-linecap="round" fill="none" d="M48.95 51.7Q48.95 47.35 52.1 41.4 54.1 37.7 60.8 27.85 67.55 38 69.4 41.4 72.65 47.35 72.65 51.7 72.65 56.6 69.15 60.1 65.7 63.55 60.8 63.55 55.8 63.55 52.4 60.1 48.95 56.6 48.95 51.7Z"/><animate attributeName="display" repeatCount="indefinite" dur="1s" keyTimes="0;.3;.333;1" values="none;inline;none;none"/></g><g display="none"><path id="Layer9_0_1_STROKES" stroke="#2885C7" stroke-width="2" stroke-linejoin="round" stroke-linecap="round" fill="none" d="M48.95 49.85Q48.95 45.5 52.1 39.55 54.1 35.85 60.8 26 67.55 36.15 69.4 39.55 72.65 45.5 72.65 49.85 72.65 54.75 69.15 58.25 65.7 61.7 60.8 61.7 55.8 61.7 52.4 58.25 48.95 54.75 48.95 49.85Z"/><animate attributeName="display" repeatCount="indefinite" dur="1s" keyTimes="0;.267;.3;1" values="none;inline;none;none"/></g><g display="none"><path id="Layer8_0_1_STROKES" stroke="#2885C7" stroke-width="2" stroke-linejoin="round" stroke-linecap="round" fill="none" d="M48.95 48Q48.95 43.65 52.1 37.7 54.1 34 60.8 24.15 67.55 34.3 69.4 37.7 72.65 43.65 72.65 48 72.65 52.9 69.15 56.4 65.7 59.85 60.8 59.85 55.8 59.85 52.4 56.4 48.95 52.9 48.95 48Z"/><animate attributeName="display" repeatCount="indefinite" dur="1s" keyTimes="0;.233;.267;1" values="none;inline;none;none"/></g><g display="none"><path id="Layer7_0_1_STROKES" stroke="#2885C7" stroke-width="2" stroke-linejoin="round" stroke-linecap="round" fill="none" d="M48.95 46.1Q48.95 41.75 52.1 35.8 54.1 32.1 60.8 22.25 67.55 32.4 69.4 35.8 72.65 41.75 72.65 46.1 72.65 51 69.15 54.5 65.7 57.95 60.8 57.95 55.8 57.95 52.4 54.5 48.95 51 48.95 46.1Z"/><animate attributeName="display" repeatCount="indefinite" dur="1s" keyTimes="0;.2;.233;1" values="none;inline;none;none"/></g><g display="none"><path id="Layer6_0_1_STROKES" stroke="#2885C7" stroke-width="2" stroke-linejoin="round" stroke-linecap="round" fill="none" d="M48.95 44.25Q48.95 39.9 52.1 33.95 54.1 30.25 60.8 20.4 67.55 30.55 69.4 33.95 72.65 39.9 72.65 44.25 72.65 49.15 69.15 52.65 65.7 56.1 60.8 56.1 55.8 56.1 52.4 52.65 48.95 49.15 48.95 44.25Z"/><animate attributeName="display" repeatCount="indefinite" dur="1s" keyTimes="0;.167;.2;1" values="none;inline;none;none"/></g><g display="none"><path id="Layer5_0_1_STROKES" stroke="#2885C7" stroke-width="2" stroke-linejoin="round" stroke-linecap="round" fill="none" d="M48.95 42.45Q48.95 38.1 52.1 32.15 54.1 28.45 60.8 18.6 67.55 28.75 69.4 32.15 72.65 38.1 72.65 42.45 72.65 47.35 69.15 50.85 65.7 54.3 60.8 54.3 55.8 54.3 52.4 50.85 48.95 47.35 48.95 42.45Z"/><animate attributeName="display" repeatCount="indefinite" dur="1s" keyTimes="0;.133;.167;1" values="none;inline;none;none"/></g><g display="none"><path id="Layer4_0_1_STROKES" stroke="#2885C7" stroke-width="2" stroke-linejoin="round" stroke-linecap="round" fill="none" d="M48.95 40.6Q48.95 36.25 52.1 30.3 54.1 26.6 60.8 16.75 67.55 26.9 69.4 30.3 72.65 36.25 72.65 40.6 72.65 45.5 69.15 49 65.7 52.45 60.8 52.45 55.8 52.45 52.4 49 48.95 45.5 48.95 40.6Z"/><animate attributeName="display" repeatCount="indefinite" dur="1s" keyTimes="0;.1;.133;1" values="none;inline;none;none"/></g><g display="none"><path id="Layer3_0_1_STROKES" stroke="#2885C7" stroke-width="2" stroke-linejoin="round" stroke-linecap="round" fill="none" d="M48.95 38.75Q48.95 34.4 52.1 28.45 54.1 24.75 60.8 14.9 67.55 25.05 69.4 28.45 72.65 34.4 72.65 38.75 72.65 43.65 69.15 47.15 65.7 50.6 60.8 50.6 55.8 50.6 52.4 47.15 48.95 43.65 48.95 38.75Z"/><animate attributeName="display" repeatCount="indefinite" dur="1s" keyTimes="0;.067;.1;1" values="none;inline;none;none"/></g><g display="none"><path id="Layer2_0_1_STROKES" stroke="#2885C7" stroke-width="2" stroke-linejoin="round" stroke-linecap="round" fill="none" d="M48.95 36.9Q48.95 32.55 52.1 26.6 54.1 22.9 60.8 13.05 67.55 23.2 69.4 26.6 72.65 32.55 72.65 36.9 72.65 41.8 69.15 45.3 65.7 48.75 60.8 48.75 55.8 48.75 52.4 45.3 48.95 41.8 48.95 36.9Z"/><animate attributeName="display" repeatCount="indefinite" dur="1s" keyTimes="0;.033;.067;1" values="none;inline;none;none"/></g><g><g transform="matrix(1.482 0 0 1.482 0 0)"><path id="Layer1_0_1_STROKES" stroke="#2885C7" stroke-width="2" stroke-linejoin="round" stroke-linecap="round" fill="none" d="M60.8 11.25Q54.1 21.1 52.1 24.8 48.95 30.75 48.95 35.1 48.95 40 52.4 43.5 55.8 46.95 60.8 46.95 65.7 46.95 69.15 43.5 72.65 40 72.65 35.1 72.65 30.75 69.4 24.8 67.55 21.4 60.8 11.25Z"/></g><animate attributeName="display" repeatCount="indefinite" dur="1s" keyTimes="0;.033;1" values="inline;none;none"/></g></g></svg>