<?xml version="1.0" encoding="utf-8"?><svg id="visibility" image-rendering="auto" baseProfile="basic" version="1.1" x="0px" y="0px" width="116" height="98" xmlns="http://www.w3.org/2000/svg" xmlns:xlink="http://www.w3.org/1999/xlink"><g id="Scene-1" overflow="visible"><g display="none" id="Layer2_0_FILL"><path fill="#A3D2F3" stroke="none" d="M98.85 46.3Q93.8 33.55 82.55 25.85 71.2 18.1 57.5 18.1 43.8 18.1 32.5 25.85 21.2 33.55 16.2 46.3 22.9 63.4 39.75 70.75 56.6 78.1 73.75 71.4 82.4 68.05 88.95 61.5 95.5 54.95 98.85 46.3M57.5 27.5Q65.3 27.5 70.8 33 76.3 38.5 76.3 46.3 76.3 54.05 70.8 59.55 65.3 65.05 57.5 65.1 49.75 65.1 44.2 59.6 38.7 54.05 38.7 46.3 38.7 38.5 44.2 33 49.75 27.5 57.5 27.5M65.5 38.3Q62.2 35 57.55 35L57.5 35Q52.85 35 49.55 38.3 46.25 41.6 46.25 46.3 46.25 50.95 49.55 54.25 52.85 57.55 57.5 57.55 62.2 57.55 65.5 54.25 68.8 50.95 68.8 46.3 68.8 41.6 65.5 38.3Z"/><animate attributeName="display" repeatCount="indefinite" dur="1s" keyTimes="0;.967;1" values="none;inline;inline"/></g><g id="Layer1_0_FILL"><path fill="#A3D2F3" stroke="none" d="M98.85 46.35Q93.8 33.6 82.55 25.9 71.2 18.15 57.5 18.15 43.8 18.15 32.5 25.9 21.2 33.6 16.2 46.35 22.9 63.45 39.75 70.8 56.6 78.15 73.75 71.45 82.4 68.1 88.95 61.55 95.5 55 98.85 46.35M57.5 27.55Q65.3 27.55 70.8 33.05 76.3 38.55 76.3 46.35 76.3 54.1 70.8 59.6 65.3 65.1 57.5 65.15 49.75 65.15 44.2 59.65 38.7 54.1 38.7 46.35 38.7 38.55 44.2 33.05 49.75 27.55 57.5 27.55M65.5 38.35Q62.2 35.05 57.55 35.05L57.5 35.05Q52.85 35.05 49.55 38.35 46.25 41.65 46.25 46.35 46.25 51 49.55 54.3 52.85 57.6 57.5 57.6 62.2 57.6 65.5 54.3 68.8 51 68.8 46.35 68.8 41.65 65.5 38.35Z"/><animate attributeName="display" repeatCount="indefinite" dur="1s" keyTimes="0;.967;1" values="inline;none;none"/></g><g id="Symbol-1" transform="matrix(.026 0 0 .026 96.75 15)"><animateTransform attributeName="transform" additive="replace" type="translate" repeatCount="indefinite" dur="1s" keyTimes="0;.033;.067;.1;.133;.167;.2;.233;.267;.3;.333;.367;.4;.433;.467;.5;.533;.567;.6;.633;.667;.7;.733;.767;.8;.833;.867;.9;.933;.967;1" values="98.851,15;98.901,15.051;98.852,15.052;98.855,15.051;98.902,15.006;98.91,14.998;98.902,15.007;98.855,15.015;98.92,15.053;98.91,15.048;98.899,15.059;98.848,15.009;98.863,14.993;98.92,15.019;98.908,15.025;98.839,15.056;98.873,15.063;98.905,15.069;98.888,15.045;98.937,15.016;98.887,15.02;98.922,15.023;98.918,15.103;98.901,15.07;98.883,15.075;98.917,15.08;98.944,15.04;98.932,15.043;98.914,14.998;98.849,15;98.849,15"/><animateTransform attributeName="transform" additive="sum" type="scale" repeatCount="indefinite" dur="1s" keyTimes="0;.033;.067;.1;.133;.167;.2;.233;.267;.3;.333;.367;.4;.433;.467;.5;.533;.567;.6;.633;.667;.7;.733;.767;.8;.833;.867;.9;.933;.967;1" values=".026,.026;.059,.059;.093,.093;.127,.127;.16,.16;.194,.194;.227,.227;.261,.261;.295,.295;.328,.328;.362,.362;.395,.395;.429,.429;.462,.462;.496,.496;.53,.53;.563,.563;.597,.597;.63,.63;.664,.664;.698,.698;.731,.731;.765,.765;.798,.798;.832,.832;.866,.866;.899,.899;.933,.933;.966,.966;1,1;1,1"/><animateTransform attributeName="transform" additive="sum" type="translate" repeatCount="indefinite" dur="1s" keyTimes="0;.033;.067;.1;.133;.167;.2;.233;.267;.3;.333;.367;.4;.433;.467;.5;.567;.6;.633;.667;.7;.733;.767;.833;.867;.9;.933;.967;1" values="-83.25,-1.95;-82.5,-1.7;-81.75,-1.1;-81.8,-.8;-81.8,-.35;-81.85,-.25;-81.6,-.25;-81.45,-.25;-81.55,-.35;-81.55,-.3;-81.55,-.3;-81.45,-.15;-81.4,-.1;-81.45,-.15;-81.35,-.05;-81.35,-.2;-81.35,-.2;-81.35,-.15;-81.45,-.1;-81.4,-.1;-81.4,-.1;-81.35,-.2;-81.35,-.15;-81.35,-.15;-81.4,-.1;-81.35,-.1;-81.35,-.05;-81.25,0;-81.25,0"/><path id="Layer3_0_1_STROKES" stroke="#A3D2F3" stroke-width="5" stroke-linejoin="round" stroke-linecap="round" fill="none" d="M81.25 0L0 65.55"/></g></g></svg>